<?xml version="1.0" standalone="no"?>
<!DOCTYPE svg PUBLIC "-//W3C//DTD SVG 20010904//EN"
 "http://www.w3.org/TR/2001/REC-SVG-20010904/DTD/svg10.dtd">
<svg version="1.0" xmlns="http://www.w3.org/2000/svg"
 width="1024.000000pt" height="1024.000000pt" viewBox="0 0 1024.000000 1024.000000"
 preserveAspectRatio="xMidYMid meet">
<metadata>
Created by potrace 1.11, written by Peter Selinger 2001-2013
</metadata>
<g transform="translate(0.000000,1024.000000) scale(0.100000,-0.100000)"
fill="#000000" stroke="none">
<path d="M5023 9120 c-76 -14 -173 -53 -308 -124 -103 -54 -2344 -1345 -2585
-1489 -358 -213 -420 -301 -297 -414 64 -59 141 -109 403 -259 131 -75 687
-396 1234 -712 1340 -774 1317 -761 1473 -813 84 -29 100 -31 192 -27 124 6
193 29 389 131 77 41 652 370 1276 733 624 362 1191 686 1260 721 247 124 492
183 579 140 17 -9 31 -12 31 -8 0 26 -112 173 -187 247 -102 99 -184 156 -413
284 -91 51 -626 359 -1190 685 -1156 668 -1229 709 -1398 794 -205 103 -332
133 -459 111z m757 -726 c89 -20 106 -29 602 -302 l437 -240 92 51 c83 46 97
51 153 50 100 0 186 -49 186 -104 0 -32 -15 -44 -142 -114 -74 -41 -86 -51
-77 -66 28 -54 -5 -144 -78 -209 -34 -31 -412 -247 -1194 -685 -629 -351
-1169 -649 -1200 -662 -130 -53 -352 -70 -489 -37 -79 18 -117 38 -659 350
-359 206 -439 256 -463 288 -80 110 -45 223 100 320 37 24 548 329 1136 677
821 486 1088 639 1150 660 137 48 297 55 446 23z"/>
<path d="M5535 8153 c-48 -6 -167 -35 -205 -50 -66 -27 -472 -268 -516 -307
-102 -88 -115 -198 -36 -286 46 -50 563 -340 662 -371 136 -42 340 -35 491 16
72 25 393 199 520 281 105 69 150 154 128 239 -19 71 -81 117 -375 277 -148
80 -287 154 -308 162 -84 34 -253 53 -361 39z"/>
<path d="M4227 7410 c-131 -22 -212 -111 -159 -176 35 -45 81 -59 182 -59 86
0 100 3 150 30 32 18 62 43 74 63 18 31 18 36 3 67 -28 59 -141 93 -250 75z"/>
<path d="M4570 7170 c-62 -21 -120 -76 -120 -114 0 -13 9 -35 21 -50 86 -110
382 -62 414 66 6 23 1 34 -27 62 -19 19 -52 39 -73 45 -60 16 -153 13 -215 -9z"/>
<path d="M3772 7163 c-63 -22 -112 -72 -112 -115 0 -123 280 -150 392 -38 59
59 46 114 -36 151 -51 23 -181 24 -244 2z"/>
<path d="M5030 6960 c-153 -27 -226 -119 -150 -190 90 -84 339 -52 394 51 17
31 18 38 5 64 -27 57 -147 93 -249 75z"/>
<path d="M4181 6943 c-65 -20 -131 -77 -131 -115 0 -28 31 -72 61 -88 68 -37
216 -30 294 13 49 28 88 82 79 111 -25 81 -168 118 -303 79z"/>
<path d="M3380 6930 c-62 -21 -120 -76 -120 -114 0 -35 34 -72 85 -91 70 -27
194 -17 263 20 84 45 104 105 54 155 -53 52 -179 66 -282 30z"/>
<path d="M4610 6727 c-187 -43 -223 -176 -61 -224 139 -40 331 33 331 126 0
77 -139 128 -270 98z"/>
<path d="M3807 6719 c-87 -20 -157 -76 -157 -125 0 -12 11 -36 25 -53 92 -108
405 -46 405 81 0 81 -136 129 -273 97z"/>
<path d="M4210 6500 c-158 -33 -221 -148 -114 -207 117 -65 323 -20 372 80 40
82 -112 157 -258 127z"/>
<path d="M1563 7020 c-52 -108 -72 -198 -84 -385 -6 -89 -9 -780 -7 -1705 l3
-1555 24 -70 c57 -171 179 -354 308 -460 47 -39 493 -299 1467 -856 1505 -860
1471 -842 1659 -868 86 -12 196 -14 221 -5 13 5 10 14 -20 46 -44 49 -75 114
-108 232 l-26 88 0 1553 c0 1510 -1 1554 -20 1629 -50 195 -215 428 -381 538
-30 19 -666 385 -1414 813 -748 428 -1378 791 -1400 808 -115 87 -164 152
-174 230 l-7 52 -41 -85z m1162 -1432 c618 -340 1225 -701 1308 -777 32 -30
78 -82 103 -116 83 -117 109 -189 180 -495 37 -157 69 -287 71 -289 2 -3 9 1
15 7 18 18 46 15 186 -19 111 -27 131 -35 159 -64 53 -56 72 -179 34 -226
l-18 -23 -99 26 c-55 14 -100 25 -101 24 -2 -1 13 -34 32 -72 44 -87 81 -200
102 -318 22 -121 22 -400 1 -556 -10 -68 -19 -230 -23 -400 -4 -169 -11 -290
-17 -298 -6 -6 -21 -12 -35 -12 -26 0 -482 258 -525 298 -26 24 -43 62 -50
109 -2 18 -162 114 -848 511 -745 431 -845 487 -848 468 -5 -31 -33 -57 -53
-51 -20 7 -495 280 -518 299 -8 6 -22 29 -32 51 -16 37 -16 62 -5 366 7 203 9
364 3 425 -11 133 -3 352 18 444 10 41 31 101 48 133 29 56 80 107 105 107 22
0 12 18 -30 53 -24 19 -70 62 -104 94 -50 48 -63 68 -73 110 -21 86 18 174 69
155 10 -4 82 -65 160 -136 97 -87 148 -141 160 -168 l18 -40 42 108 c23 60 58
151 77 201 57 148 113 197 218 190 55 -3 79 -14 270 -119z"/>
<path d="M2454 5539 c-17 -5 -39 -17 -48 -28 -15 -16 -166 -392 -166 -412 0
-3 33 -19 73 -34 131 -51 419 -185 602 -279 407 -211 794 -453 1198 -748 81
-59 147 -103 147 -98 0 5 -29 133 -64 284 -41 173 -74 293 -92 327 -54 107
-143 180 -429 351 -428 256 -1056 610 -1113 628 -50 15 -77 18 -108 9z"/>
<path d="M1964 4720 c-63 -26 -74 -130 -22 -220 67 -119 243 -260 443 -357 81
-39 109 -48 153 -48 71 0 82 15 58 80 -32 81 -117 196 -231 311 -176 177 -328
265 -401 234z"/>
<path d="M3947 3490 c-21 -4 -50 -16 -65 -27 -79 -58 -3 -169 208 -306 240
-155 427 -198 459 -107 13 38 -2 127 -31 184 -27 52 -111 135 -172 169 -73 41
-174 74 -260 86 -85 12 -84 12 -139 1z"/>
<path d="M8480 6800 c-25 -4 -65 -16 -90 -26 -25 -9 -592 -330 -1260 -712
-668 -383 -1305 -741 -1415 -797 -284 -145 -517 -231 -638 -237 l-52 -3 43
-43 c70 -70 120 -196 153 -394 10 -55 14 -457 18 -1658 l6 -1585 28 -48 c42
-71 94 -101 181 -105 56 -3 85 1 136 20 102 37 2759 1561 2839 1628 136 114
245 272 305 438 l31 87 3 1615 c3 1767 6 1668 -54 1746 -44 59 -143 90 -234
74z m-492 -1350 l7 -315 275 -52 c151 -28 290 -55 309 -58 l33 -6 -5 -82 c-2
-45 -12 -105 -22 -133 -25 -75 -121 -259 -134 -257 -6 2 -42 6 -81 9 l-70 7 0
-653 1 -654 -33 -20 c-18 -12 -332 -195 -698 -408 l-665 -387 -3 590 c-1 324
-5 589 -8 589 -4 0 -125 -68 -270 -151 l-264 -150 0 -362 c0 -199 -3 -466 -7
-593 l-6 -231 -276 -156 -276 -157 -5 622 -5 621 -59 -72 -58 -73 -55 54 c-30
29 -72 76 -94 104 l-39 51 15 43 c23 65 54 111 277 410 112 151 447 601 742
1000 296 399 540 727 542 729 2 2 113 -17 246 -43 134 -25 247 -46 251 -46 4
0 7 62 7 138 0 75 3 160 6 189 l7 52 201 104 c183 95 201 102 204 83 1 -12 6
-163 10 -336z"/>
<path d="M7855 4169 c-49 -28 -206 -119 -347 -201 l-258 -150 0 -319 c0 -175
3 -319 6 -319 15 0 659 372 682 394 9 9 12 84 10 329 l-3 317 -90 -51z"/>
</g>
</svg>
